<svg width="126" height="48" fill="none" xmlns="http://www.w3.org/2000/svg"><path d="M73.094 14.836 78.57 20.4v16.89l-5.473-5.562-.003-16.89ZM33.635 24.817l-4.302.004a.342.342 0 0 1-.234-.46l2.134-5.506a.272.272 0 0 1 .248-.17c.112.002.207.072.245.169l2.148 5.501a.338.338 0 0 1-.239.462Zm1.874 3.596.943 2.374a1.404 1.404 0 0 0 1.837.796 1.44 1.44 0 0 0 .783-1.868l-5.261-13.307a2.504 2.504 0 0 0-2.335-1.6 2.516 2.516 0 0 0-2.333 1.609l-5.226 13.317a1.445 1.445 0 0 0 .789 1.868 1.403 1.403 0 0 0 1.834-.801l.939-2.376c.237-.577.801-.828 1.385-.808l5.256-.008c.641-.002 1.149.229 1.389.804ZM68.887 28.86l-4.896.006h-.012c-2.854 0-4.246-1.224-4.575-4.146l9.464-.014c.819 0 1.48-.676 1.48-1.507a1.492 1.492 0 0 0-1.484-1.501l-9.465.012c.321-2.93 1.715-4.112 4.577-4.116l4.895-.008c.818 0 1.48-.524 1.477-1.354 0-.831-.663-1.402-1.481-1.4l-4.896.006c-3.475.005-7.62 1.214-7.611 8.38.01 7.164 4.159 8.494 7.634 8.49h.019l4.877-.007c.816-.002 1.478-.678 1.477-1.508 0-.829-.663-1.335-1.48-1.334ZM54.888 26.791c-.003-2.728-2.19-4.953-4.868-4.95l-4.582.007c-1.1.002-1.993-1.083-1.995-2.2-.001-1.118.89-2.026 1.989-2.026l8.057-.01c.8-.003 1.44-.477 1.439-1.286 0-.808-.644-1.46-1.443-1.459l-8.059.01c-2.695.005-4.875 2.228-4.873 4.964.005 2.734 2.188 4.951 4.885 4.95l4.58-.008c1.095 0 1.987.9 1.989 2.013.001 1.11-.89 2.014-1.984 2.016L42 28.823c-.796.001-1.443.656-1.441 1.467a1.457 1.457 0 0 0 1.445 1.464l8.022-.012c.06 0 .117-.005.177-.012 2.603-.1 4.687-2.276 4.684-4.939ZM10.224 24.666l7.072-.01c1.115.015 2.017 1.058 2.018 2.19.001 1.15-.915 2.084-2.044 2.085l-7.04.01-.006-4.275Zm-.009-7.041 6.804-.01c1.13-.003 2.05.928 2.05 2.072.003 1.135-.898 2.158-2.012 2.177l-6.836.009-.006-4.248Zm6.821 14.077c3.057-.005 5.422-1.404 5.42-4.584-.003-1.873-1.136-3.16-2.423-3.85 1.187-.69 2.192-2.25 2.19-3.764-.003-2.867-2.012-4.666-5.208-4.66l-8.62.01a.923.923 0 0 0-.913.932v.024l.022 14.949c0 .008 0 .016-.002.022a.924.924 0 0 0 .915.933l8.62-.012ZM15.296 39.779l-.004-2.264c0-.31-.018-.544-.054-.708a.963.963 0 0 0-.207-.422.92.92 0 0 0-.465-.294c-.192-.056-.469-.084-.828-.083l-1.753.002a.326.326 0 0 0-.322.329c0 .182.145.328.324.328l1.577-.001c.199-.001.36.01.482.028.122.019.215.06.277.127a.519.519 0 0 1 .126.285c.014.093.023.208.027.345.002.047-.043.15-.152.15l-1.278.002c-.247 0-.451.013-.608.038a.964.964 0 0 0-.773.573c-.093.197-.141.419-.141.668.002.413.14.734.418.965.071.056.142.1.21.136.07.033.155.06.25.08.097.019.212.033.344.042.133.007.3.01.499.011 0 0 1.244 0 1.727-.002a.326.326 0 0 0 .323-.328l.001-.008Zm-.815-.479a.159.159 0 0 1-.158.158c-.08-.002-1.182 0-1.182 0-.285 0-.488-.044-.607-.134-.118-.089-.179-.242-.179-.46 0-.217.059-.373.178-.465.118-.092.32-.138.607-.14h1.19c.091 0 .15.056.15.159l.001.882ZM7.481 34.999c0-.25.199-.452.443-.452.246 0 .446.201.446.45l-.002.047.003 2.755c0 .356.016.639.047.85.029.212.097.372.201.483.104.111.256.183.456.216.2.035.467.05.8.05l.715-.001c.19 0 .345.156.345.35 0 .192-.152.35-.344.35-.275.002-.713.002-.713.002-.27 0-.5-.007-.69-.02a2.854 2.854 0 0 1-.507-.077 1.642 1.642 0 0 1-.705-.379c-.1-.088-.18-.18-.241-.277a1.29 1.29 0 0 1-.149-.35 2.418 2.418 0 0 1-.08-.493 9.759 9.759 0 0 1-.021-.704c0 .001-.004-2.023-.004-2.8ZM29.803 39.76l-.004-2.262c0-.308-.02-.545-.055-.708a.932.932 0 0 0-.67-.716c-.194-.055-.47-.083-.83-.083l-1.75.003a.326.326 0 0 0-.325.33c0 .18.146.327.325.327l1.576-.003c.2 0 .36.011.483.03.121.018.213.061.278.128.064.065.105.16.124.284.015.093.024.21.027.346.002.046-.042.148-.15.148l-1.28.002c-.247 0-.45.012-.608.039a.964.964 0 0 0-.773.572 1.56 1.56 0 0 0-.14.67c.001.411.14.731.417.963.072.056.142.101.21.136.071.032.154.06.25.08.097.02.213.034.345.041.133.01.298.014.498.014l1.727-.003c.18 0 .324-.148.324-.328v-.01Zm-.815-.476c0 .094-.08.156-.158.156l-1.181.002c-.288 0-.49-.044-.608-.133-.12-.09-.179-.244-.179-.462 0-.217.058-.373.179-.465.116-.092.32-.139.607-.139l1.188-.001c.093 0 .152.057.152.159v.883ZM42.52 39.747l-.002-2.262c0-.31-.019-.547-.056-.71a.929.929 0 0 0-.671-.715c-.191-.056-.468-.084-.828-.083l-1.752.001a.328.328 0 0 0-.324.33c0 .18.146.328.325.328l1.578-.002c.198-.001.358.01.482.028.12.02.213.061.278.128a.524.524 0 0 1 .124.286c.015.092.024.208.026.344.002.047-.041.15-.15.15l-1.278.002c-.249 0-.452.012-.608.038-.156.026-.286.07-.386.13a.974.974 0 0 0-.388.442 1.55 1.55 0 0 0-.14.668c0 .413.14.735.416.965.072.057.143.103.212.135.07.033.153.061.25.08.095.02.212.036.344.043.133.008.299.013.498.012l1.728-.002c.18 0 .323-.148.323-.329v-.007Zm-.814-.478a.156.156 0 0 1-.156.156l-1.182.001c-.288 0-.49-.044-.61-.134-.117-.088-.178-.242-.178-.46 0-.217.06-.371.179-.465.116-.092.32-.139.607-.139h1.188c.092 0 .151.056.151.158l.001.883ZM24.973 37.758c-.14-.196-.37-.35-.69-.464.542-.253.878-.69.878-1.263a1.55 1.55 0 0 0-.092-.531 1.35 1.35 0 0 0-.259-.432 1.043 1.043 0 0 0-.535-.332 2.512 2.512 0 0 0-.406-.069 6.769 6.769 0 0 0-.542-.017l-2.123.001a.42.42 0 0 0-.416.425l.004 4.55c0 .234.188.444.418.442l1.855.002a5.04 5.04 0 0 0 .913-.07c.243-.047.438-.12.586-.216.202-.126.357-.295.463-.514.106-.219.159-.462.159-.73-.001-.325-.071-.586-.213-.782Zm-3.326-2.279c0-.067.054-.15.147-.15l1.537-.001c.212 0 .369.013.469.04.1.027.187.08.262.155.076.07.13.158.166.26.038.106.057.218.057.345 0 .283-.091.5-.278.646a.652.652 0 0 1-.266.126c-.103.025-.239.046-.409.046 0 0-1.444-.006-1.54-.005-.095 0-.144-.053-.144-.141l-.001-1.32Zm1.552 3.891-1.407-.001c-.09 0-.14-.06-.14-.158l-.002-1.447c0-.082.048-.144.144-.144l1.474.002c.358-.001.618.062.774.192.156.132.235.367.235.67 0 .602-.358.886-1.078.886ZM34.11 37.703v-.021c0-.582-.125-.997-.372-1.247-.246-.25-.656-.375-1.229-.374l-1.428.001a.4.4 0 0 0-.395.404v.006l.002.851a.238.238 0 0 0-.005.047l.002 2.302c.001.222.179.403.396.402a.4.4 0 0 0 .398-.402V38.52h.004l-.002-1.665c0-.089.063-.15.156-.15l.752-.002c.172 0 .316.019.435.054a.573.573 0 0 1 .283.18.754.754 0 0 1 .158.333c.032.136.049.304.05.5v.748l.002 1.15a.4.4 0 0 0 .397.404.402.402 0 0 0 .395-.405h.002v-1.964ZM37.811 39.446h-.942a2.15 2.15 0 0 1-.521-.05.778.778 0 0 1-.324-.171c-.235-.219-.352-.6-.352-1.143 0-.492.09-.844.271-1.054.18-.212.488-.318.923-.318h.944a.32.32 0 0 0 .316-.324.32.32 0 0 0-.318-.32h-.002l-.941.002c-.183 0-.35.01-.492.028-.143.02-.276.05-.394.091a1.382 1.382 0 0 0-.602.419 1.776 1.776 0 0 0-.389.677c-.086.264-.13.554-.13.869 0 .295.046.574.132.83.087.255.21.472.367.648.076.088.159.161.252.217.093.059.198.105.317.142.118.035.254.06.406.077.153.017.332.025.538.024l.937-.001h.007a.319.319 0 0 0 .316-.321.321.321 0 0 0-.319-.322ZM68.681 39.717l-.003-2.262c0-.31-.019-.545-.056-.709a.945.945 0 0 0-.672-.718c-.19-.054-.468-.082-.827-.082l-1.752.003a.325.325 0 0 0-.323.33c0 .181.145.327.324.327l1.577-.001c.199 0 .36.01.481.028.122.02.214.06.278.129a.51.51 0 0 1 .126.285c.014.092.024.208.027.344.003.047-.043.15-.152.15l-1.277.002c-.248 0-.453.012-.608.037a.961.961 0 0 0-.773.572c-.096.198-.141.422-.141.669 0 .413.14.734.417.964.07.058.142.102.211.137.07.033.152.06.248.08.098.019.213.035.345.043.133.006.299.011.499.011 0 0 1.244-.001 1.727-.003.18 0 .324-.147.324-.327v-.01Zm-.814-.478a.158.158 0 0 1-.159.156l-1.182.002c-.286 0-.488-.044-.608-.134-.118-.09-.177-.243-.178-.46 0-.217.058-.372.177-.465.12-.092.322-.139.609-.139l1.189-.001c.092 0 .15.056.15.159l.002.882ZM53.955 35.991a.416.416 0 0 0-.41.421h-.001l.005 3.333c0 .233.185.42.412.42a.416.416 0 0 0 .412-.42l-.001-3.335h-.003a.417.417 0 0 0-.414-.419ZM60.324 35.984a.414.414 0 0 0-.412.419l.005 3.336c0 .23.184.418.412.417a.416.416 0 0 0 .412-.418l-.003-3.335a.416.416 0 0 0-.414-.419ZM58.546 35.928l-1.261.002c-.216 0-.406.01-.57.026a1.997 1.997 0 0 0-.434.09 1.33 1.33 0 0 0-.337.16 1.305 1.305 0 0 0-.269.248 1.965 1.965 0 0 0-.38.705 3.043 3.043 0 0 0-.132.923c0 .404.066.752.2 1.044.134.293.33.516.59.674.083.05.161.09.236.12.074.032.158.056.25.074.095.016.209.026.34.032.133.007.3.008.506.008l.723-.001c.093 0 .135.054.137.15 0 .095-.008.199-.02.266a.228.228 0 0 1-.097.151.508.508 0 0 1-.211.066c-.09.01-.214.016-.369.016 0 0-1.08 0-1.529.003h-.002a.326.326 0 0 0-.322.329c0 .18.145.326.322.326h.002l1.404-.002a5.945 5.945 0 0 0 .594-.018c.075-.004.142-.015.2-.028l.187-.046c.369-.113.575-.348.62-.7l.013-.127.008-.144c.004-.062.005-.145.008-.253.003-.106.004-.257.004-.455l-.005-3.226a.411.411 0 0 0-.406-.413Zm-.403 3.308c0 .088-.043.14-.14.14H57.2c-.252.002-.444-.02-.575-.066a.75.75 0 0 1-.333-.232 1.21 1.21 0 0 1-.22-.437 1.963 1.963 0 0 1-.08-.569c0-.196.022-.397.066-.598A1.46 1.46 0 0 1 56.23 37a.925.925 0 0 1 .16-.198.662.662 0 0 1 .214-.125c.086-.03.187-.054.306-.067.118-.015.26-.022.426-.022h.645c.082 0 .156.042.156.151l.005 2.497ZM64.034 39.426h-.396c-.127.001-.229-.008-.305-.024a.375.375 0 0 1-.185-.094.369.369 0 0 1-.096-.197 1.632 1.632 0 0 1-.024-.313l-.003-2.15.932-.002.005.001c.18 0 .324-.147.324-.329a.324.324 0 0 0-.316-.325h-.01l-.935.001-.002-1.085v-.003a.407.407 0 0 0-.403-.412.407.407 0 0 0-.403.412h-.002l.002 1.088-.384.002h-.004a.324.324 0 0 0-.322.326c0 .182.146.328.323.328.003 0 .005-.002.005-.002h.383l.002 2.11c0 .47.103.808.31 1.016.206.205.539.31 1.001.307h.504a.325.325 0 0 0 .322-.327.325.325 0 0 0-.323-.328ZM69.937 34.31a.419.419 0 0 0-.415.422l.006 4.912c.002.234.187.422.417.422.23 0 .415-.19.414-.422h.001l-.005-4.914h-.002a.416.416 0 0 0-.416-.42ZM52.552 36.129a2.291 2.291 0 0 0-.855-1.157 1.484 1.484 0 0 0-.404-.187 2.72 2.72 0 0 0-.53-.097 8.445 8.445 0 0 0-.719-.027l-1.624.002a.423.423 0 0 0-.417.427l.006 4.554v.002c.001.233.187.424.418.424l1.705-.003c.218 0 .402-.004.557-.014.155-.006.29-.02.407-.045a1.687 1.687 0 0 0 .607-.235c.333-.2.585-.508.756-.92.17-.414.254-.93.254-1.546 0-.458-.054-.85-.16-1.178Zm-.823 2.096a1.632 1.632 0 0 1-.233.59c-.122.2-.284.346-.488.436-.203.09-.466.135-.789.135l-1.202.001a.148.148 0 0 1-.147-.15l-.004-3.749c0-.092.063-.147.157-.147h1.135c.322 0 .58.034.77.105a1 1 0 0 1 .47.349c.126.173.225.402.297.683.073.282.108.6.108.953 0 .294-.023.558-.074.794ZM54.476 34.978a.479.479 0 0 1-.474.484.479.479 0 0 1-.476-.483.477.477 0 0 1 .474-.483c.262 0 .475.218.476.482ZM60.818 34.97a.479.479 0 0 1-.475.484.479.479 0 0 1-.475-.483.48.48 0 0 1 .474-.483.48.48 0 0 1 .476.482ZM107.844 32.574l-.021.001c-.332.004-4.804.015-4.804.015-.53 0-1.014-.048-1.411-.096a3.964 3.964 0 0 1-1.002-.268 2.732 2.732 0 0 1-.744-.476 2.801 2.801 0 0 1-.563-.677c-.274-.436-.462-1.125-.559-1.826-.024-.174.148-.517.492-.517.345-.002 3.772-.007 3.772-.007a21.955 21.955 0 0 0 1.443-.044c.41-.027 2.6-.096 3.781-1.636.455-.595.604-1.423.603-2.137-.001-.83-.187-1.577-.554-2.222a4.043 4.043 0 0 0-1.596-1.549c-.872-.487-2.148-.733-3.792-.73-1.005 0-1.869.09-2.572.265a5.628 5.628 0 0 0-1.883.837 5.282 5.282 0 0 0-1.89 2.318c-.402.94-.606 2.11-.604 3.47.005 3.023 1 5.17 2.958 6.383.504.322 1.046.55 1.614.675.561.125 1.294.186 2.172.186l5.12-.006c.014 0 .028.003.043.003.531 0 .96-.44.96-.983-.003-.54-.433-.982-.963-.98Zm-9.197-6.521c.384-2.47 1.761-3.643 4.076-3.636 1.079.002 2.084.152 2.644.58.561.426.833 1.024.835 1.83 0 .371-.025.743-.21 1.028-.561.863-1.779.915-2.858.918l-3.94.004c-.447 0-.582-.507-.547-.724ZM93.18 26.215c-.002-2.007-.428-3.677-1.276-4.538-.85-.86-2.264-1.289-4.241-1.287l-4.924.008a1.377 1.377 0 0 0-1.366 1.392v.018l-.001 11.274h.001a1.379 1.379 0 0 0 1.37 1.387c.756 0 1.368-.623 1.366-1.392h.002l.005-9.369c0-.309.215-.527.537-.527l2.596.003c.591 0 1.089.06 1.496.182.407.123.735.332.985.622.249.294.43.675.542 1.147.11.472.168 1.05.168 1.73l.01 6.205h.001c.001.767.614 1.389 1.37 1.387a1.381 1.381 0 0 0 1.368-1.392h.001l-.01-6.85ZM117.425 32.449l-.012.002-1.015.003c-.429 0-.773-.028-1.034-.084a1.241 1.241 0 0 1-.63-.323c-.159-.16-.265-.38-.322-.661a5.783 5.783 0 0 1-.085-1.07l.006-7.13h1.439c.76 0 1.375-.625 1.375-1.396 0-.77-.615-1.395-1.375-1.395h-1.438l.004-4.15v-.015c0-.767-.613-1.39-1.371-1.388a1.38 1.38 0 0 0-1.367 1.393h-.003l.005 4.159h-.032c-.759 0-1.375.625-1.375 1.395 0 .771.616 1.396 1.375 1.396h.035l.009 7c.003 1.591.352 2.736 1.05 3.437.699.7 1.833 1.05 3.403 1.047l1.338-.002c.009 0 .016.002.024 0 .603 0 1.093-.497 1.091-1.11a1.102 1.102 0 0 0-1.095-1.108ZM89.922 8.318l-6.96-1.63c-.581-.138-.916.226-.741.807l.202.671 4.16-.063c.4-.005.71.163.836.45.104.237.073.529-.087.82l-2.912 5.305c.221.356.609.375.95.004l4.873-5.308c.404-.444.26-.92-.321-1.056Z" fill="#fff"/><path d="m86.585 8.32-7.14.11c-.598.008-.836.442-.53.964l.504.856 3.793-1.025c.423-.115.79.005.966.3.119.201.14.46.064.749l-1.483 5.578c.297.272.668.188.906-.246l3.48-6.337c.29-.53.039-.957-.56-.95Z" fill="#fff"/><path d="M84.035 10.217c.156-.586-.19-.938-.77-.783l-6.9 1.867c-.577.154-.706.634-.284 1.066l5.04 5.139c.423.43.896.304 1.053-.283l1.861-7.006Z" fill="#fff"/></svg>